HIERARCHY
ROOT Hips
{
  OFFSET 47.4081 95.5856 16.1344
  CHANNELS 6 Xposition Yposition Zposition Zrotation Xrotation Yrotation
  JOINT spine
  {
    OFFSET 0 7.96568 0.458067
    CHANNELS 3 Zrotation Xrotation Yrotation
    JOINT spine1
    {
      OFFSET 0 10.2431 0
      CHANNELS 3 Zrotation Xrotation Yrotation
      JOINT spine2
      {
        OFFSET 0 9.81475 0
        CHANNELS 3 Zrotation Xrotation Yrotation
        JOINT Neck
        {
          OFFSET 0 25.1986 1.20138
          CHANNELS 3 Zrotation Xrotation Yrotation
          JOINT Head
          {
            OFFSET 0 7.61315 0
            CHANNELS 3 Zrotation Xrotation Yrotation
            End Site
            {
              OFFSET 0 18.4281 -6.07733
            }
          }
        }
        JOINT RightShoulder
        {
          OFFSET -4.1327 10.5992 -0.575451
          CHANNELS 3 Zrotation Xrotation Yrotation
          JOINT RightArm
          {
            OFFSET 0 13.9018 0
            CHANNELS 3 Zrotation Xrotation Yrotation
            JOINT RightArmRoll
            {
              OFFSET 0 7.01788 0
              CHANNELS 3 Zrotation Xrotation Yrotation
              JOINT RightForeArm
              {
                OFFSET 0 20.4406 0
                CHANNELS 3 Zrotation Xrotation Yrotation
                JOINT RightForeArmRoll
                {
                  OFFSET 0 7.87515 0
                  CHANNELS 3 Zrotation Xrotation Yrotation
                  JOINT RightHand
                  {
                    OFFSET 0 15.8037 0
                    CHANNELS 3 Zrotation Xrotation Yrotation
                    End Site
                    {
                      OFFSET 0 0 0
                    }
                  }
                }
              }
            }
          }
        }
        JOINT LeftShoulder
        {
          OFFSET 4.1327 10.5992 -0.575451
          CHANNELS 3 Zrotation Xrotation Yrotation
          JOINT LeftArm
          {
            OFFSET 0 13.9018 0
            CHANNELS 3 Zrotation Xrotation Yrotation
            JOINT LeftArmRoll
            {
              OFFSET 0 7.01789 0
              CHANNELS 3 Zrotation Xrotation Yrotation
              JOINT LeftForeArm
              {
                OFFSET 0 20.4406 0
                CHANNELS 3 Zrotation Xrotation Yrotation
                JOINT LeftForeArmRoll
                {
                  OFFSET 0 7.87516 0
                  CHANNELS 3 Zrotation Xrotation Yrotation
                  JOINT LeftHand
                  {
                    OFFSET 0 15.8037 0
                    CHANNELS 3 Zrotation Xrotation Yrotation
                    End Site
                    {
                      OFFSET 0 0 0
                    }
                  }
                }
              }
            }
          }
        }
      }
    }
  }
  JOINT RightUpLeg
  {
    OFFSET -7.06048 -1.2947 -1.08609
    CHANNELS 3 Zrotation Xrotation Yrotation
    JOINT RightUpLegRoll
    {
      OFFSET 0 18.5308 0
      CHANNELS 3 Zrotation Xrotation Yrotation
      JOINT RightLeg
      {
        OFFSET 0 -22.9476 0
        CHANNELS 3 Zrotation Xrotation Yrotation
        JOINT RightLegRoll
        {
          OFFSET 0 23.0226 0
          CHANNELS 3 Zrotation Xrotation Yrotation
          JOINT RightFoot
          {
            OFFSET 0 19.1625 0
            CHANNELS 3 Zrotation Xrotation Yrotation
            JOINT RightToeBase
            {
              OFFSET 0 16.0188 0
              CHANNELS 3 Zrotation Xrotation Yrotation
              End Site
              {
                OFFSET 0.00678979 7.75782 -0.894207
              }
            }
          }
        }
      }
    }
  }
  JOINT LeftUpLeg
  {
    OFFSET 7.06048 -1.2947 -1.08609
    CHANNELS 3 Zrotation Xrotation Yrotation
    JOINT LeftUpLegRoll
    {
      OFFSET 0 18.5309 0
      CHANNELS 3 Zrotation Xrotation Yrotation
      JOINT LeftLeg
      {
        OFFSET 0 22.9475 0
        CHANNELS 3 Zrotation Xrotation Yrotation
        JOINT LeftLegRoll
        {
          OFFSET 0 23.2355 0
          CHANNELS 3 Zrotation Xrotation Yrotation
          JOINT LeftFoot
          {
            OFFSET 0 18.9496 0
            CHANNELS 3 Zrotation Xrotation Yrotation
            JOINT LeftToeBase
            {
              OFFSET 0 16.0188 0
              CHANNELS 3 Zrotation Xrotation Yrotation
              End Site
              {
                OFFSET -0.0304289 7.75782 -0.894207
              }
            }
          }
        }
      }
    }
  }
}
MOTION
Frames: 13
Frame Time: 0.00208333
48.804 99.2466 20.8295 0.977335 1.82269 -2.81428 -0.324069 -2.34097 -0.140767 -0.651517 -0.678501 -0.252703 -0.648573 0.966498 -0.241831 0.719476 31.5466 -0.265317 -0.460667 -12.1234 -0.0569289 40.9355 -8.65263 -4.9713 25.2769 34.1992 65.6573 -1.19338e-006 5.9186e-008 1.09567e-005 -8.93099 47.9036 8.33123 -2.28055e-006 -4.65697e-008 -3.01036 8.02977 -4.95141 0.697663 -41.0627 -4.50332 1.3896 -19.2404 33.6241 -62.7256 3.18055e-015 1.11319e-014 9.54166e-015 7.79219 51.1597 -8.49876 6.47383e-006 1.50222e-006 3.00388 -8.03034 -4.95137 -0.697592 156.491 3.8867 8.66098 180 7.01367e-015 178.313 178.74 8.17891 179.494 1.13523e-006 -4.47681e-006 0.00356674 -17.3996 65.4476 17.6109 8.13648 25.2324 -3.48799 -159.591 8.65224 -6.40085 4.5067e-006 -1.99009e-005 -1.29911 2.50202 -13.6897 0.752589 2.69008e-006 -6.75327e-007 -0.228357 19.3229 68.1436 -19.6591 -8.13627 25.2293 3.49108 
48.7788 99.5633 20.7227 0.877275 1.78981 -2.79196 -0.310753 -2.33538 -0.141607 -0.624945 -0.667308 -0.255538 -0.621965 0.977699 -0.245112 0.917177 31.4709 -0.360807 -0.623714 -11.8809 -0.105013 41.5959 -8.58326 -4.92338 25.5428 33.947 64.943 -1.19338e-006 5.9186e-008 1.09567e-005 -8.58831 47.7592 7.98539 -2.28055e-006 -4.65698e-008 -3.01036 8.02977 -4.95141 0.697663 -41.3974 -4.43757 1.36211 -19.7738 33.4716 -61.9715 1.59028e-014 1.74931e-014 -0 7.39429 50.9287 -8.11431 6.47382e-006 1.50222e-006 3.00388 -8.03034 -4.95137 -0.697592 156.854 3.62264 8.34522 180 7.01372e-015 178.328 178.749 7.63141 179.501 1.13523e-006 -4.47681e-006 -0.00600816 -17.3968 65.4667 17.6225 8.13649 25.2327 -3.48774 -159.67 8.38468 -6.35073 4.5067e-006 -1.99009e-005 -1.29692 2.42631 -13.1362 0.70751 2.69008e-006 -6.75328e-007 -0.211811 19.2661 68.0862 -19.6098 -8.13649 25.2327 3.48773 
48.7634 99.9952 20.7745 0.799579 1.74664 -2.76111 -0.302474 -2.32681 -0.142539 -0.608424 -0.650179 -0.258088 -0.605415 0.994834 -0.247939 1.13493 31.4008 -0.465702 -0.795974 -11.6778 -0.155735 42.2513 -8.51821 -4.87949 25.8203 33.6806 64.2353 -1.19338e-006 5.9186e-008 1.09567e-005 -8.24899 47.6267 7.64943 -2.28055e-006 -4.65698e-008 -3.01036 8.02977 -4.95141 0.697663 -41.7309 -4.37311 1.33578 -20.286 33.3312 -61.2727 1.23589e-030 -1.11319e-014 6.36111e-015 7.02174 50.6906 -7.75623 6.47383e-006 1.50222e-006 3.00388 -8.03034 -4.95137 -0.697592 157.17 3.38253 8.07357 180 7.01378e-015 178.345 178.745 7.16696 179.508 1.13523e-006 -4.4768e-006 -0.0141061 -17.4046 65.5003 17.6443 8.13649 25.2327 -3.48774 -159.784 8.12785 -6.2791 4.5067e-006 -1.99009e-005 -1.29547 2.35656 -12.624 0.667199 2.69008e-006 -6.75327e-007 -0.193908 19.204 68.0185 -19.5526 -8.13649 25.2327 3.48773 
48.715 100.347 20.8135 0.738027 1.69707 -2.72227 -0.297926 -2.31602 -0.14357 -0.599358 -0.628584 -0.260483 -0.596323 1.01643 -0.250487 1.37544 31.3313 -0.583097 -0.979194 -11.5033 -0.210929 42.9092 -8.45846 -4.8428 26.1035 33.4034 63.5293 -1.19338e-006 5.9186e-008 1.09567e-005 -7.90598 47.5046 7.31902 -2.28055e-006 -4.65698e-008 -3.01036 8.02977 -4.95141 0.697663 -42.067 -4.3124 1.31363 -20.7759 33.2097 -60.6229 3.18055e-015 3.18055e-015 -3.18055e-015 6.66916 50.4433 -7.41904 6.47382e-006 1.50222e-006 3.00388 -8.03034 -4.95137 -0.697592 157.452 3.16751 7.8403 180 7.01385e-015 178.364 178.726 6.77901 179.515 1.13523e-006 -4.4768e-006 -0.0191653 -17.4278 65.5608 17.6841 8.13649 25.2327 -3.48774 -159.925 7.88112 -6.19113 4.5067e-006 -1.99009e-005 -1.29474 2.29304 -12.1439 0.630616 2.69008e-006 -6.75327e-007 -0.176825 19.1395 67.9479 -19.4935 -8.13649 25.2327 3.48773 
48.6928 100.747 20.8126 0.69108 1.64207 -2.67644 -0.296676 -2.30323 -0.144632 -0.596877 -0.603 -0.262631 -0.593821 1.04202 -0.252679 1.6345 31.2614 -0.710804 -1.17101 -11.3539 -0.269802 43.5669 -8.40372 -4.81271 26.3932 33.1162 62.826 -1.19338e-006 5.9186e-008 1.09567e-005 -7.56042 47.3922 6.99441 -2.28055e-006 -4.65697e-008 -3.01036 8.02977 -4.95141 0.697663 -42.4044 -4.25503 1.29517 -21.2487 33.1066 -60.0154 6.36111e-015 -3.18055e-015 -0 6.3345 50.188 -7.10098 6.47382e-006 1.50222e-006 3.00388 -8.03034 -4.95137 -0.697592 157.703 2.97594 7.64103 180 7.01393e-015 178.386 178.695 6.46056 179.523 1.13523e-006 -4.4768e-006 -0.0215154 -17.4648 65.6449 17.7398 8.13649 25.2327 -3.48774 -160.091 7.64491 -6.08858 4.5067e-006 -1.99009e-005 -1.29459 2.23503 -11.6951 0.597487 2.69008e-006 -6.75327e-007 -0.160582 19.0735 67.8756 -19.4331 -8.13649 25.2327 3.48773 
48.7156 101.074 20.8281 0.657199 1.58263 -2.6246 -0.298292 -2.28869 -0.14566 -0.600114 -0.573905 -0.264442 -0.597043 1.07111 -0.254437 1.90789 31.1898 -0.846638 -1.36907 -11.2261 -0.331562 44.2218 -8.35373 -4.7886 26.6905 32.82 62.1265 -1.19338e-006 5.9186e-008 1.09567e-005 -7.21349 47.2887 6.67591 -2.28055e-006 -4.65697e-008 -3.01036 8.02977 -4.95141 0.697663 -42.7422 -4.20057 1.27989 -21.7093 33.0208 -59.4438 6.36111e-015 -6.36111e-015 -6.36111e-015 6.01569 49.9262 -6.80027 6.47382e-006 1.50222e-006 3.00388 -8.03034 -4.95137 -0.697592 157.927 2.80613 7.47144 180 7.01401e-015 178.41 178.655 6.2046 179.53 1.13523e-006 -4.4768e-006 -0.021486 -17.5141 65.7491 17.8097 8.13649 25.2327 -3.48774 -160.278 7.41963 -5.97321 4.5067e-006 -1.99009e-005 -1.2949 2.18183 -11.2769 0.567545 2.69008e-006 -6.75327e-007 -0.1452 19.0068 67.8023 -19.3724 -8.13649 25.2327 3.48773 
48.6833 101.468 20.8422 0.634842 1.51972 -2.56773 -0.30234 -2.27263 -0.146587 -0.608202 -0.541776 -0.265822 -0.605123 1.10324 -0.255684 2.19142 31.1153 -0.988411 -1.57101 -11.1166 -0.395414 44.8715 -8.3082 -4.76988 26.9963 32.5157 61.4317 -1.19338e-006 5.9186e-008 1.09567e-005 -6.8664 47.1934 6.36381 -2.28055e-006 -4.65697e-008 -3.01036 8.02977 -4.95141 0.697663 -43.0794 -4.14863 1.26729 -22.1622 32.951 -58.9017 5.29669e-031 -4.77083e-015 6.36111e-015 5.71063 49.6593 -6.51511 6.47383e-006 1.50222e-006 3.00388 -8.03034 -4.95137 -0.697592 158.128 2.65637 7.32721 180 7.0141e-015 178.436 178.606 6.00403 179.538 1.13523e-006 -4.4768e-006 -0.0194068 -17.5741 65.8701 17.8919 8.13649 25.2327 -3.48774 -160.484 7.20572 -5.84677 4.5067e-006 -1.99009e-005 -1.29554 2.13275 -10.8886 0.540533 2.69008e-006 -6.75327e-007 -0.130697 18.94 67.729 -19.312 -8.13649 25.2327 3.48773 
48.6963 101.802 20.9709 0.622458 1.45432 -2.50682 -0.308386 -2.2553 -0.147347 -0.620274 -0.507091 -0.266679 -0.617194 1.13793 -0.256341 2.48086 31.0366 -1.13393 -1.77446 -11.0219 -0.460566 45.5133 -8.26685 -4.75594 27.3119 32.2043 60.7425 -1.19338e-006 5.9186e-008 1.09567e-005 -6.52039 47.1056 6.05846 -2.28055e-006 -4.65698e-008 -3.01036 8.02977 -4.95141 0.697663 -43.4147 -4.09878 1.25687 -22.6119 32.8953 -58.3829 3.18055e-015 0 3.18055e-015 5.41724 49.3887 -6.2437 6.47383e-006 1.50222e-006 3.00388 -8.03034 -4.95137 -0.697592 158.311 2.52494 7.20404 180 7.01419e-015 178.463 178.553 5.85185 179.545 1.13523e-006 -4.4768e-006 -0.0156074 -17.6433 66.0046 17.9843 8.13649 25.2327 -3.48774 -160.706 7.00363 -5.711 4.5067e-006 -1.99009e-005 -1.29639 2.08713 -10.5293 0.5162 2.69008e-006 -6.75327e-007 -0.117093 18.8741 67.6565 -19.2527 -8.13649 25.2327 3.48773 
48.664 102.182 20.9849 0.618491 1.38742 -2.44285 -0.315998 -2.23692 -0.147872 -0.635464 -0.470327 -0.266921 -0.632392 1.17469 -0.256331 2.77201 30.9526 -1.28102 -1.97707 -10.9386 -0.526222 46.1448 -8.2294 -4.74617 27.6382 31.8869 60.0596 -1.19338e-006 5.9186e-008 1.09567e-005 -6.17673 47.0244 5.76022 -2.28055e-006 -4.65697e-008 -3.01036 8.02977 -4.95141 0.697663 -43.7472 -4.05062 1.24813 -23.0626 32.8513 -57.8815 6.36111e-015 6.36111e-015 -0 5.13345 49.1155 -5.98424 6.47383e-006 1.50222e-006 3.00388 -8.03034 -4.95137 -0.697592 158.48 2.41006 7.09764 180 7.01428e-015 178.491 178.496 5.74102 179.553 1.13523e-006 -4.4768e-006 -0.0104175 -17.72 66.1493 18.085 8.13649 25.2327 -3.48774 -160.942 6.81378 -5.56765 4.5067e-006 -1.99009e-005 -1.29732 2.04433 -10.1983 0.494299 2.69008e-006 -6.75327e-007 -0.104407 18.8096 67.5858 -19.1953 -8.13649 25.2327 3.48773 
48.6842 102.483 21.0131 0.621375 1.31999 -2.37681 -0.324742 -2.21774 -0.148097 -0.652904 -0.431962 -0.266455 -0.64985 1.21305 -0.255577 3.06064 30.862 -1.42748 -2.17644 -10.8632 -0.591584 46.7632 -8.19558 -4.73999 27.9768 31.5647 59.3836 -1.19338e-006 5.9186e-008 1.09567e-005 -5.83671 46.9491 5.46947 -2.28055e-006 -4.65697e-008 -3.01036 8.02977 -4.95141 0.697663 -44.0758 -4.00372 1.24056 -23.5182 32.8167 -57.3915 3.18055e-015 3.18055e-015 6.36111e-015 4.85717 48.8412 -5.73494 6.47382e-006 1.50222e-006 3.00388 -8.03034 -4.95137 -0.697592 158.638 2.30998 7.00372 180 7.01437e-015 178.519 178.439 5.66452 179.56 1.13523e-006 -4.4768e-006 -0.00416669 -17.8025 66.3007 18.192 8.13649 25.2327 -3.48774 -161.188 6.63664 -5.41845 4.5067e-006 -1.99009e-005 -1.2982 2.00372 -9.8949 0.474589 2.69008e-006 -6.75327e-007 -0.0926597 18.7473 67.5178 -19.1403 -8.13649 25.2327 3.48773 
48.6614 102.854 21.0489 0.629535 1.25302 -2.30967 -0.334187 -2.198 -0.147955 -0.67173 -0.392473 -0.265191 -0.668704 1.25253 -0.253999 3.34255 30.7638 -1.57112 -2.37019 -10.7923 -0.655852 47.3662 -8.1651 -4.73679 28.3288 31.2389 58.7153 -1.19338e-006 5.9186e-008 1.09567e-005 -5.50165 46.879 5.18661 -2.28055e-006 -4.65698e-008 -3.01036 8.02977 -4.95141 0.697663 -44.3994 -3.95769 1.23368 -23.9826 32.7885 -56.9069 6.36111e-015 1.27222e-014 6.36111e-015 4.58637 48.567 -5.49402 6.47383e-006 1.50222e-006 3.00388 -8.03034 -4.95137 -0.697592 158.789 2.22292 6.91802 180 7.01446e-015 178.548 178.382 5.61527 179.566 1.13523e-006 -4.4768e-006 0.00281538 -17.8891 66.4557 18.3031 8.13649 25.2327 -3.48774 -161.442 6.47266 -5.26514 4.5067e-006 -1.99009e-005 -1.29891 1.96466 -9.61822 0.456831 2.69008e-006 -6.75327e-007 -0.08187 18.6879 67.4534 -19.0886 -8.13649 25.2327 3.48773 
48.7208 103.154 20.984 0.641388 1.18748 -2.24241 -0.343899 -2.17794 -0.14738 -0.691076 -0.352338 -0.263035 -0.688089 1.29267 -0.251521 3.61353 30.6568 -1.70976 -2.55591 -10.7225 -0.718224 47.951 -8.13769 -4.73596 28.6958 30.9107 58.055 -1.19338e-006 5.9186e-008 1.09567e-005 -5.17291 46.8134 4.91207 -2.28055e-006 -4.65697e-008 -3.01036 8.02977 -4.95141 0.697663 -44.7169 -3.91209 1.22698 -24.4596 32.7637 -56.4221 6.36111e-015 4.77083e-015 3.18055e-015 4.31901 48.2942 -5.25971 6.47382e-006 1.50222e-006 3.00388 -8.03034 -4.95137 -0.697592 158.936 2.14708 6.83626 180 7.01454e-015 178.576 178.33 5.58627 179.572 1.13523e-006 -4.4768e-006 0.0101991 -17.9779 66.6108 18.416 8.13649 25.2327 -3.48774 -161.701 6.32229 -5.10944 4.5067e-006 -1.99009e-005 -1.29932 1.92656 -9.36756 0.440792 2.69008e-006 -6.75327e-007 -0.0720575 18.6322 67.3935 -19.0407 -8.13649 25.2327 3.48773 
48.7067 103.509 21.0198 0.655343 1.12437 -2.17602 -0.353445 -2.15779 -0.146305 -0.710076 -0.312034 -0.259895 -0.707141 1.33297 -0.248065 3.86939 30.5397 -1.84123 -2.73119 -10.6503 -0.777896 48.5151 -8.11305 -4.73692 29.0793 30.5815 57.4031 -1.19338e-006 5.9186e-008 1.09567e-005 -4.85185 46.7515 4.64629 -2.28055e-006 -4.65698e-008 -3.01036 8.02977 -4.95141 0.697663 -45.0272 -3.86653 1.21995 -24.9526 32.7389 -55.9312 6.36111e-015 -4.77083e-015 -0 4.05309 48.024 -5.03026 6.47382e-006 1.50222e-006 3.00388 -8.03034 -4.95137 -0.697592 159.084 2.08069 6.75418 180 7.01462e-015 178.603 178.283 5.57048 179.578 1.13523e-006 -4.4768e-006 0.0176547 -18.0667 66.7628 18.5282 8.13649 25.2327 -3.48774 -161.963 6.18601 -4.9531 4.5067e-006 -1.99009e-005 -1.29931 1.88882 -9.14214 0.426239 2.69008e-006 -6.75328e-007 -0.0632419 18.5806 67.3389 -18.9974 -8.13649 25.2327 3.48773 
